<?xml version="1.0" encoding="utf-8"?>
<!-- Generator: Adobe Illustrator 27.3.1, SVG Export Plug-In . SVG Version: 6.00 Build 0)  -->
<svg version="1.1" id="Layer_1" xmlns="http://www.w3.org/2000/svg" xmlns:xlink="http://www.w3.org/1999/xlink" x="0px" y="0px"
	 viewBox="0 0 726 296" style="enable-background:new 0 0 726 296;" xml:space="preserve">
<style type="text/css">
	.st0{fill:#FFFFFF;}
</style>
<g>
	<g>
		<path class="st0" d="M369.3,221.1c4.7,13.1,16.3,19.9,30.3,19.9c10.6,0,21.7-5.6,21.7-17.6c0-12.7-12.6-15-26.5-17.5
			c-17.8-3.2-37.4-7-37.4-33.4c0-22.1,19.8-33.3,39.6-33.3c18.4,0,34.6,7.5,41.7,25.4l-16.3,7.4c-4.9-10.1-14-16.2-25.7-16.2
			c-9.3,0-18.7,3.9-18.7,15.1c0,12.4,11.6,14.6,25.6,17.1c18,3.2,38.8,6.8,38.8,33.7c0,23.3-21.7,35.6-42.9,35.6
			c-20.6,0-41.4-7.4-47.6-28.7L369.3,221.1z"/>
		<path class="st0" d="M470.2,136.1c6.5,0,11.7,4.8,11.7,11.5c0,6.6-5,11.4-11.6,11.4c-6.5,0-12-4.9-12-11.5
			C458.2,140.8,463.7,136.1,470.2,136.1z M460,171.8h20.1v83.9H460V171.8z"/>
		<path class="st0" d="M545.4,255.1c-4.3,1.3-8.8,2-13.8,2c-16,0-25.5-8.3-25.5-25v-45.7h-11.3v-14.8h11.3v-17.3l20.1-8.7v26.1h18.5
			v14.8h-18.5v43.9c0,6.6,2.8,10.7,10.2,10.7c2.8,0,6-0.6,9-1.6V255.1z"/>
		<path class="st0" d="M635.7,237.4c-7,14.8-22.1,19.9-37.5,19.9c-26.5,0-43.2-17.7-43.2-43.9c0-24.6,17-43.6,42.3-43.6
			c27.2,0,40.4,15.9,40.4,48.3h-62.2c0,14.2,8.2,24.6,23.5,24.6c9.1,0,16.6-3.7,21-12.2L635.7,237.4z M617.6,204.9
			c-0.6-12.7-8.3-20.5-20.2-20.5c-12.6,0-20,8.9-21.7,20.5H617.6z"/>
		<path class="st0" d="M663.1,230.6c3.1,8.2,11.7,12.2,20.8,12.2c6.5,0,14.6-2,14.6-10c0-8.4-9.1-10.4-19.5-12.6
			c-13.5-2.8-28.6-6.1-28.6-25c0-17.3,16.1-25.5,31.3-25.5c13.3,0,28.6,5,34.1,18.3l-14.9,6.4c-3.3-7.5-11.5-10.3-18.4-10.3
			c-6.7,0-13.1,2.7-13.1,9.5c0,7.7,8.2,9.3,18.4,11.3c13.7,2.7,30.1,5.8,30.1,25.4c0,19.8-16.6,26.8-34.1,26.8
			c-14.8,0-30.8-5-36-20.1L663.1,230.6z"/>
	</g>
	<g>
		<path class="st0" d="M360.6,104.4l37-53.4h-33.2V40.5H415v5.2l-36.1,53.4h35v10.5h-53.3V104.4z"/>
		<path class="st0" d="M446.7,58c15.4,0,27.2,10.8,27.2,26.3c0,15.9-12.4,26.4-27.7,26.4c-15.4,0-27.8-10.7-27.8-26.1
			C418.3,68.6,431.4,58,446.7,58z M460.8,84.3c0-9.3-4.7-17.1-14.7-17.1c-10.2,0-14.3,8.1-14.3,17.4c0,9,4.8,16.6,14.6,16.6
			C456.6,101.3,460.8,93.2,460.8,84.3z"/>
		<path class="st0" d="M482.7,36.1h12.1v31c3.3-6.3,9.9-9.1,16.9-9.1c12.1,0,18.2,8.5,18.2,20v31.7h-12.2V79.2
			c0-7.3-3.8-11.3-10.8-11.3c-7.8,0-12.1,4.8-12.1,12v29.7h-12.1V36.1z"/>
		<path class="st0" d="M566,58c15.4,0,27.2,10.8,27.2,26.3c0,15.9-12.4,26.4-27.7,26.4c-15.4,0-27.8-10.7-27.8-26.1
			C537.7,68.6,550.8,58,566,58z M580.2,84.3c0-9.3-4.7-17.1-14.7-17.1c-10.2,0-14.3,8.1-14.3,17.4c0,9,4.8,16.6,14.6,16.6
			C575.9,101.3,580.2,93.2,580.2,84.3z"/>
	</g>
</g>
<g>
	<ellipse transform="matrix(0.3827 -0.9239 0.9239 0.3827 -46.5806 162.0871)" class="st0" cx="98" cy="115.9" rx="7.1" ry="7.1"/>
	
		<ellipse transform="matrix(0.9732 -0.2298 0.2298 0.9732 -23.4369 30.5098)" class="st0" cx="119.3" cy="115.9" rx="7.1" ry="7.1"/>
	
		<ellipse transform="matrix(0.9732 -0.2298 0.2298 0.9732 -22.8698 35.3806)" class="st0" cx="140.5" cy="115.9" rx="7.1" ry="7.1"/>
	<path class="st0" d="M281.8,71H245V37.1c0-9.4-7.6-17-17-17H23c-9.4,0-17,7.6-17,17V208c0,9.4,7.6,17,17,17h33.9v36.7
		c0,7.8,6.4,14.2,14.2,14.2h53.7c4.7,0,8.5-3.8,8.5-8.5s-3.8-8.5-8.5-8.5H74V88h205v170.8H170l-16.5-16.4c5.2-8.9,6.6-19.7,3.8-29.8
		l-0.1-0.2c-2.7-10.1-9.3-18.7-18.2-23.8l5.1-19.2c10.3,0,20.3-4.1,27.6-11.5l0.2-0.2c7.4-7.4,11.5-17.4,11.5-27.7l19.1-5.2
		c5.2,8.9,13.8,15.5,23.9,18.2h0.1h0.1c10.7,2.9,22.1,1.1,31.3-4.8l4.3-2.7c3.9-2.5,5-7.8,2.5-11.7c-2.5-3.9-7.8-5-11.7-2.5
		l-4.3,2.7c-5.2,3.3-11.7,4.3-17.7,2.7l-0.3-0.1c-6.1-1.6-11.2-5.6-14-11.1l-0.2-0.4c-3.1-5.9-9.9-8.9-16.3-7.2l-23.5,6.3
		c-6.4,1.7-10.8,7.8-10.5,14.4v0.5c0.4,6.2-2,12.2-6.5,16.7l-0.2,0.2c-4.4,4.4-10.5,6.8-16.6,6.5h-0.5c-6.7-0.3-12.7,4.1-14.4,10.5
		l-6.1,23.6c-1.7,6.3,1.3,13.2,7.2,16.2l0.4,0.2c5.4,2.8,9.5,7.9,11.1,13.9l0.1,0.3c1.7,6.1,0.7,12.5-2.6,17.7l-0.3,0.4
		c-3.6,5.6-2.8,13,1.9,17.7l18.9,18.8c2.7,2.6,6.2,4.1,10,4.1h113.2c7.8,0,14.2-6.4,14.2-14.1V85.2C296,77.4,289.6,71,281.8,71z
		 M71.1,71c-7.8,0-14.1,6.3-14.2,14.2V208H23V37.1h205V71H71.1z"/>
	<path class="st0" d="M220.3,165.7c-17.8-4.8-36.1,5.8-40.8,23.6c-4.8,17.8,5.8,36.1,23.6,40.8c2.9,0.7,5.8,1.1,8.6,1.1
		c14.8,0,28.3-9.9,32.2-24.7C248.7,188.7,238.1,170.5,220.3,165.7z M227.6,202c-2.3,8.7-11.3,13.9-20,11.6
		c-8.7-2.3-13.9-11.3-11.6-20c1.9-7.3,8.6-12.1,15.8-12.1c1.3,0,2.8,0.2,4.2,0.5C224.7,184.3,229.9,193.3,227.6,202z"/>
</g>
</svg>
